# xmcd
#
# Track frame offsets:
#	150
#	16185
#	29498
#	41010
#	55935
#	69645
#	85435
#	100340
#	111638
#	121855
#	134663
#	146715
#	158388
#	175245
#	189968
#	204345
#	215275
#	227328
#
# Disc length: 3226 seconds
#
# Revision: 0
# Processed by: cddbd v1.5.2PL0 Copyright (c) Steve Scherf et al.
# Submitted via: dBpowerAMP V4.0
#
DISCID=fa0c9812
DTITLE=Various Artist - Die schönsten Hymnen der Meere
DYEAR=1900
DGENRE=Shanty
TTITLE0=Sail Away - Hans Hartz
TTITLE1=Welcome Home  - Godwind
TTITLE2=Hundert Mann und ein Befehl - Freddy Quinn
TTITLE3=Denn mein Junge ist ein Seemann - Lolita
TTITLE4=Roll The Cotton Down - Polizeichor Lübeck
TTITLE5=Nimm uns mit Kapitän auf die Reise - Jonny Hill
TTITLE6=Ünnern Seewind - Springfloot
TTITLE7=Kapitän Kapitän - Judith and Mel
TTITLE8=Sailing Sailing - Polizeichor Hamburg
TTITLE9=Unter fremden Sternen - Freddy Quinn
TTITLE10=Paddy Lay Back - Emder Shanty Gruppe
TTITLE11=Auf der Reeperbahn nachts um halb eins - Curd Jürgerns
TTITLE12=Shenandoah - Sylter Shanty-Chor
TTITLE13=Heimat deine Sterne - Teddy Parker
TTITLE14=Adieu mein Kapitän - Judith and Mel
TTITLE15=What Shall We Do With The Drunken Sailor - Henno Storm
TTITLE16=Seemann lass das Träumen - Lolita
TTITLE17=Rolling Home - Finkwarder Speeldeel
EXTD=
EXTT0=
EXTT1=
EXTT2=
EXTT3=
EXTT4=
EXTT5=
EXTT6=
EXTT7=
EXTT8=
EXTT9=
EXTT10=
EXTT11=
EXTT12=
EXTT13=
EXTT14=
EXTT15=
EXTT16=
EXTT17=
PLAYORDER=
